<?xml version="1.0" encoding="utf-8"?>
<!-- Generator: Adobe Illustrator 22.1.0, SVG Export Plug-In . SVG Version: 6.00 Build 0)  -->
<svg version="1.1" id="Layer_1" xmlns="http://www.w3.org/2000/svg" xmlns:xlink="http://www.w3.org/1999/xlink" x="0px" y="0px"
	 viewBox="0 0 2785 496.6" style="enable-background:new 0 0 2785 496.6;" xml:space="preserve">
<style type="text/css">
	.st0{fill:#383838;}
</style>
<path class="st0" d="M14.6,62v372.7c0,27.2,22,49.2,49.2,49.2h156.9c2.4-40.5,29.4-119.7,29.4-119.7c15.6-42,80-89.5,80-89.5
	c-26.7-41.1-44,9.3-77.6,13.9c-33.6,4.6-21.4,36.2-21.4,36.2c-34.3-37.4-45.2-56.1-41.7-79.5s33.5-42.6,62.1-45.2
	c28.7-2.6,53.9-32.6,53-36.9c-0.9-4.3,4.3-39.5,50.8-34.8c46.5,4.8,84.3,23.5,94.7,52.1s14.8,80-8.7,119.5s-37.8,38.7-36.5,61.7
	c0.8,14.4,1,17.7,1.1,18.2c0-0.1,0-0.3,0-0.4c0,0,0,0.7,0,0.4c-0.4,25.9,40.9,82,57.9,103.9h131.9c27.2,0,49.2-22,49.2-49.2V62
	c0-27.2-22-49.2-49.2-49.2H63.7C36.6,12.9,14.6,34.9,14.6,62z"/>
<g>
	<path class="st0" d="M870.1,471.4c-5.6,0-12-0.2-19.2-0.5c-7.2-0.3-14.7-1-22.4-2c-7.7-1-15.4-2.2-23.2-3.7
		c-7.7-1.5-14.9-3.5-21.4-6.2c-18.1-6.9-27.1-18.9-27.1-36V192.9c0-6.9,1.9-12.2,5.7-16c3.8-3.8,8.9-6.8,15.5-9.1
		c14.1-4.6,29.1-7.6,44.8-9.1c15.8-1.5,29.9-2.2,42.4-2.2c25.6,0,48.9,3.1,69.7,9.4c20.9,6.2,38.8,15.9,53.7,28.8
		c14.9,13,26.5,29.3,34.7,49c8.2,19.7,12.3,43,12.3,70c0,26.3-3.9,49.2-11.8,68.7c-7.9,19.6-19.1,36-33.8,49.3
		C975.5,445,958,455,937.6,461.5C917.2,468.1,894.7,471.4,870.1,471.4z M842.5,399.4c3.6,0.7,8,1.2,13.3,1.7
		c5.3,0.5,10.2,0.7,14.8,0.7c11.2,0,21.4-1.6,30.8-4.9c9.4-3.3,17.4-8.4,24.1-15.3c6.7-6.9,12-15.8,15.8-26.9
		c3.8-11,5.7-24.2,5.7-39.7c0-29.6-6.9-51.8-20.7-66.8c-13.8-14.9-32.2-22.4-55.2-22.4c-4.6,0-9.3,0.2-14,0.5
		c-4.8,0.3-9.6,0.8-14.5,1.5V399.4z"/>
	<path class="st0" d="M1326.4,343.7c0,20.4-3.1,38.5-9.4,54.5c-6.2,15.9-15,29.3-26.4,40.2s-24.9,19.1-40.7,24.6
		c-15.8,5.6-33.3,8.4-52.7,8.4c-19.4,0-37-3-52.7-8.9c-15.8-5.9-29.3-14.4-40.7-25.4c-11.3-11-20.1-24.4-26.4-40.2
		c-6.2-15.8-9.4-33.5-9.4-53.2c0-19.4,3.1-37,9.4-52.7c6.2-15.8,15-29.2,26.4-40.2c11.3-11,24.9-19.5,40.7-25.4
		c15.8-5.9,33.3-8.9,52.7-8.9c19.4,0,37,3,52.7,9.1c15.8,6.1,29.3,14.6,40.7,25.6c11.3,11,20.1,24.4,26.4,40.2
		C1323.3,307.3,1326.4,324.7,1326.4,343.7z M1153.9,343.7c0,20,3.9,35.4,11.6,46.1c7.7,10.7,18.5,16,32.3,16s24.4-5.4,31.8-16.3
		c7.4-10.8,11.1-26.1,11.1-45.8s-3.8-34.9-11.3-45.6c-7.6-10.7-18.2-16-32-16c-13.8,0-24.5,5.3-32,16
		C1157.7,308.8,1153.9,324,1153.9,343.7z"/>
	<path class="st0" d="M1502.4,282.6c-8.2,0-16,1.3-23.4,3.9c-7.4,2.6-13.8,6.5-19.2,11.6c-5.4,5.1-9.8,11.4-13.1,19
		c-3.3,7.6-4.9,16.4-4.9,26.6c0,20.4,5.8,35.7,17.5,45.8c11.7,10.2,25.9,15.3,42.6,15.3c9.9,0,18.4-1.1,25.6-3.4
		c7.2-2.3,13.6-4.8,19.2-7.4c6.6,4.6,11.5,9.6,14.8,15c3.3,5.4,4.9,11.9,4.9,19.5c0,13.5-6.4,23.9-19.2,31.3
		c-12.8,7.4-30.6,11.1-53.2,11.1c-20.7,0-39.4-3-56.2-9.1c-16.8-6.1-31.1-14.6-43.1-25.6c-12-11-21.3-24.2-27.8-39.7
		c-6.6-15.4-9.9-32.5-9.9-51.3c0-21.7,3.5-40.7,10.6-56.9c7.1-16.3,16.7-29.6,28.8-40.2c12.2-10.5,26.2-18.4,42.1-23.7
		c15.9-5.3,32.8-7.9,50.5-7.9c23.7,0,41.9,4.3,54.7,12.8c12.8,8.5,19.2,19.6,19.2,33c0,6.2-1.5,12.1-4.4,17.5s-6.4,10.1-10.3,14
		c-5.6-2.6-12.3-5.2-20.2-7.6C1520.1,283.9,1511.5,282.6,1502.4,282.6z"/>
	<path class="st0" d="M1848.8,343.7c0,20.4-3.1,38.5-9.4,54.5c-6.2,15.9-15,29.3-26.4,40.2s-24.9,19.1-40.7,24.6
		c-15.8,5.6-33.3,8.4-52.7,8.4c-19.4,0-37-3-52.7-8.9c-15.8-5.9-29.3-14.4-40.7-25.4c-11.3-11-20.1-24.4-26.4-40.2
		c-6.2-15.8-9.4-33.5-9.4-53.2c0-19.4,3.1-37,9.4-52.7c6.2-15.8,15-29.2,26.4-40.2c11.3-11,24.9-19.5,40.7-25.4
		c15.8-5.9,33.3-8.9,52.7-8.9c19.4,0,37,3,52.7,9.1c15.8,6.1,29.3,14.6,40.7,25.6c11.3,11,20.1,24.4,26.4,40.2
		C1845.7,307.3,1848.8,324.7,1848.8,343.7z M1676.3,343.7c0,20,3.9,35.4,11.6,46.1c7.7,10.7,18.5,16,32.3,16s24.4-5.4,31.8-16.3
		c7.4-10.8,11.1-26.1,11.1-45.8s-3.8-34.9-11.3-45.6c-7.6-10.7-18.2-16-32-16c-13.8,0-24.5,5.3-32,16
		C1680.1,308.8,1676.3,324,1676.3,343.7z"/>
	<path class="st0" d="M2041.5,311.7c0-10.2-2.9-17.7-8.6-22.4c-5.8-4.8-13.6-7.1-23.4-7.1c-6.6,0-13.1,0.8-19.5,2.5
		c-6.4,1.6-11.9,4.1-16.5,7.4v171c-3.3,1-8.5,2-15.5,3c-7.1,1-14.4,1.5-21.9,1.5c-7.2,0-13.7-0.5-19.5-1.5c-5.8-1-10.6-3-14.5-5.9
		s-7-7-9.1-12.1c-2.1-5.1-3.2-11.7-3.2-20V280.2c0-8.9,1.9-16.1,5.7-21.7c3.8-5.6,8.9-10.7,15.5-15.3c11.2-7.9,25.2-14.3,42.1-19.2
		c16.9-4.9,35.7-7.4,56.4-7.4c37.1,0,65.7,8.1,85.7,24.4c20,16.3,30.1,38.9,30.1,67.8V463c-3.3,1-8.5,2-15.5,3
		c-7.1,1-14.4,1.5-21.9,1.5c-7.2,0-13.7-0.5-19.5-1.5c-5.8-1-10.6-3-14.5-5.9s-7-7-9.1-12.1c-2.1-5.1-3.2-11.7-3.2-20V311.7z"/>
	<path class="st0" d="M2296.8,471.4c-5.6,0-12-0.2-19.2-0.5c-7.2-0.3-14.7-1-22.4-2c-7.7-1-15.4-2.2-23.2-3.7
		c-7.7-1.5-14.9-3.5-21.4-6.2c-18.1-6.9-27.1-18.9-27.1-36V192.9c0-6.9,1.9-12.2,5.7-16c3.8-3.8,8.9-6.8,15.5-9.1
		c14.1-4.6,29.1-7.6,44.8-9.1c15.8-1.5,29.9-2.2,42.4-2.2c25.6,0,48.9,3.1,69.7,9.4c20.9,6.2,38.8,15.9,53.7,28.8
		c14.9,13,26.5,29.3,34.7,49c8.2,19.7,12.3,43,12.3,70c0,26.3-3.9,49.2-11.8,68.7c-7.9,19.6-19.1,36-33.8,49.3
		c-14.6,13.3-32.1,23.2-52.5,29.8C2343.9,468.1,2321.4,471.4,2296.8,471.4z M2269.2,399.4c3.6,0.7,8,1.2,13.3,1.7
		c5.3,0.5,10.2,0.7,14.8,0.7c11.2,0,21.4-1.6,30.8-4.9c9.4-3.3,17.4-8.4,24.1-15.3c6.7-6.9,12-15.8,15.8-26.9
		c3.8-11,5.7-24.2,5.7-39.7c0-29.6-6.9-51.8-20.7-66.8c-13.8-14.9-32.2-22.4-55.2-22.4c-4.6,0-9.3,0.2-14,0.5
		c-4.8,0.3-9.6,0.8-14.5,1.5V399.4z"/>
	<path class="st0" d="M2753.1,343.7c0,20.4-3.1,38.5-9.4,54.5c-6.2,15.9-15,29.3-26.4,40.2s-24.9,19.1-40.7,24.6
		c-15.8,5.6-33.3,8.4-52.7,8.4c-19.4,0-37-3-52.7-8.9c-15.8-5.9-29.3-14.4-40.7-25.4c-11.3-11-20.1-24.4-26.4-40.2
		c-6.2-15.8-9.4-33.5-9.4-53.2c0-19.4,3.1-37,9.4-52.7c6.2-15.8,15-29.2,26.4-40.2c11.3-11,24.9-19.5,40.7-25.4
		c15.8-5.9,33.3-8.9,52.7-8.9c19.4,0,37,3,52.7,9.1c15.8,6.1,29.3,14.6,40.7,25.6c11.3,11,20.1,24.4,26.4,40.2
		C2750,307.3,2753.1,324.7,2753.1,343.7z M2580.6,343.7c0,20,3.9,35.4,11.6,46.1c7.7,10.7,18.5,16,32.3,16s24.4-5.4,31.8-16.3
		c7.4-10.8,11.1-26.1,11.1-45.8s-3.8-34.9-11.3-45.6c-7.6-10.7-18.2-16-32-16c-13.8,0-24.5,5.3-32,16
		C2584.4,308.8,2580.6,324,2580.6,343.7z"/>
</g>
</svg>
