<?xml version="1.0" encoding="utf-8"?>
<!-- Generator: Adobe Illustrator 22.1.0, SVG Export Plug-In . SVG Version: 6.00 Build 0)  -->
<svg version="1.1" id="Layer_1" xmlns="http://www.w3.org/2000/svg" xmlns:xlink="http://www.w3.org/1999/xlink" x="0px" y="0px"
	 viewBox="0 0 55 14" style="enable-background:new 0 0 55 14;" xml:space="preserve">
<path d="M42,6H30v2h12v3l4-4l-4-4V6z"/>
<g>
	<path d="M51.8,4.3c0.3,0.9,0.5,1.8,0.5,2.8c0,1-0.2,1.9-0.5,2.7s-0.8,1.8-1.6,2.9h-1.5c0.9-1.9,1.4-3.7,1.4-5.5
		c0-0.9-0.1-1.8-0.3-2.6c-0.2-1-0.6-2-1.1-3.1h1.5C50.9,2.5,51.5,3.4,51.8,4.3z"/>
</g>
<path d="M12.3,3l-4,4l4,4V8h12V6h-12V3z"/>
<g>
	<path d="M4.1,1.5h1.5C5,2.6,4.7,3.7,4.4,4.7C4.2,5.5,4.2,6.3,4.2,7.3c0,1.8,0.5,3.6,1.4,5.5H4.1c-0.8-1.1-1.3-2-1.6-2.9
		S2,8.1,2,7.1c0-1,0.2-1.9,0.5-2.8S3.3,2.5,4.1,1.5z"/>
</g>
</svg>
